<svg width="48" height="48" viewBox="0 0 48 48" fill="none" xmlns="http://www.w3.org/2000/svg">
<path d="M18 8L14 12L10 16L14 20L18 24L19.4 22.6L20.8 21.2L18.2 18.6L15.6 16L18.2 13.4L20.8 10.8L19.4 9.4L18 8ZM30 8L28.6 9.4L27.2 10.8L29.8 13.4L32.4 16L29.8 18.6L27.2 21.2L28.6 22.6L30 24L34 20L38 16L34 12L30 8ZM41.954 38.18L41.178 35.116C41.1283 34.9207 41.0396 34.7374 40.9173 34.5772C40.7949 34.417 40.6414 34.2833 40.466 34.184C40.2897 34.0832 40.0951 34.0185 39.8935 33.9938C39.6919 33.9691 39.4874 33.9848 39.292 34.04L30.188 36.608L24 34L31.83 31.994C32.3645 31.5171 32.7517 30.8975 32.946 30.208L32.332 28L16 30H6V42H16L24.91 43.928C25.3944 43.9721 25.8822 43.9607 26.364 43.894L40.884 39.986C41.2649 39.884 41.5908 39.6371 41.792 39.298C41.8914 39.1311 41.9568 38.9463 41.9846 38.7541C42.0124 38.562 42.002 38.3682 41.954 38.18ZM12 40H8V32H12V40ZM25.844 41.964C25.7539 41.9875 25.6611 41.9996 25.568 42C25.4907 42.0003 25.4136 41.9922 25.338 41.976L16 39.926V32.04L30.658 30.224L20 34L29.442 38.464L30.076 38.718L30.732 38.532L39.364 36.098L39.892 38.182L25.844 41.964Z" fill="#111111"/>
</svg>
