<svg width="81" height="80" viewBox="0 0 81 80" fill="none" xmlns="http://www.w3.org/2000/svg">
<path d="M42.8336 38.9393L41.7728 40L42.8336 41.0607L57.9369 56.1626C58.2886 56.5142 58.2887 57.0845 57.9369 57.4362L57.9369 57.4363C57.5852 57.788 57.0149 57.788 56.6632 57.4362L41.5615 42.3329L40.5007 41.272L39.44 42.3329L24.3383 57.4363C23.9867 57.7879 23.4164 57.788 23.0646 57.4362C22.7129 57.0846 22.7128 56.5143 23.0646 56.1625L38.1679 41.0607L39.2287 40L38.1679 38.9393L23.0646 23.8375C23.0645 23.8375 23.0645 23.8375 23.0645 23.8375C22.7129 23.4859 22.7128 22.9157 23.0646 22.5638C23.4163 22.2122 23.9865 22.2121 24.3383 22.5638C24.3383 22.5638 24.3383 22.5638 24.3383 22.5639L39.44 37.6672L40.5007 38.728L41.5615 37.6672L56.6633 22.5638C57.0149 22.2121 57.5852 22.2121 57.937 22.5639L57.937 22.5639C58.2887 22.9155 58.2887 23.4857 57.937 23.8375C57.937 23.8375 57.937 23.8376 57.937 23.8376L42.8336 38.9393Z" fill="#980A91" stroke="#961F41" stroke-width="3"/>
<circle cx="40.5" cy="40.0001" r="38.5" stroke="#961F41" stroke-width="3"/>
</svg>
