<svg width="124" height="100" viewBox="0 0 124 100" fill="none" xmlns="http://www.w3.org/2000/svg">
<path d="M56 16L52 20L48 24L52 28L56 32L57.4 30.6L58.8 29.2L56.2 26.6L53.6 24L56.2 21.4L58.8 18.8L57.4 17.4L56 16ZM68 16L66.6 17.4L65.2 18.8L67.8 21.4L70.4 24L67.8 26.6L65.2 29.2L66.6 30.6L68 32L72 28L76 24L72 20L68 16ZM79.954 46.18L79.178 43.116C79.1283 42.9207 79.0396 42.7374 78.9173 42.5772C78.7949 42.417 78.6414 42.2833 78.466 42.184C78.2897 42.0832 78.0951 42.0185 77.8935 41.9938C77.6919 41.9691 77.4874 41.9848 77.292 42.04L68.188 44.608L62 42L69.83 39.994C70.3645 39.5171 70.7517 38.8975 70.946 38.208L70.332 36L54 38H44V50H54L62.91 51.928C63.3944 51.9721 63.8822 51.9607 64.364 51.894L78.884 47.986C79.2649 47.884 79.5908 47.6371 79.792 47.298C79.8914 47.1311 79.9568 46.9463 79.9846 46.7541C80.0124 46.562 80.002 46.3682 79.954 46.18ZM50 48H46V40H50V48ZM63.844 49.964C63.7539 49.9875 63.6611 49.9996 63.568 50C63.4907 50.0003 63.4136 49.9922 63.338 49.976L54 47.926V40.04L68.658 38.224L58 42L67.442 46.464L68.076 46.718L68.732 46.532L77.364 44.098L77.892 46.182L63.844 49.964Z" fill="#F5E9EC"/>
<path d="M8.6 69.648H11.516V87H8.6V69.648ZM21.425 79.716V81.9L15.089 81.912V79.728L21.425 79.716ZM31.7388 69.408C33.0108 69.408 34.1388 69.668 35.1228 70.188C36.1068 70.7 36.8988 71.396 37.4988 72.276C38.1068 73.156 38.4668 74.136 38.5788 75.216H35.4948C35.3748 74.576 35.1508 74.004 34.8228 73.5C34.5028 72.996 34.0788 72.596 33.5508 72.3C33.0228 72.004 32.3908 71.856 31.6548 71.856C30.7348 71.856 29.9508 72.076 29.3028 72.516C28.6628 72.948 28.1708 73.636 27.8268 74.58C27.4908 75.524 27.3228 76.748 27.3228 78.252C27.3228 80.532 27.6988 82.192 28.4508 83.232C29.2028 84.272 30.2708 84.792 31.6548 84.792C32.3908 84.792 33.0228 84.632 33.5508 84.312C34.0788 83.984 34.5028 83.552 34.8228 83.016C35.1508 82.472 35.3748 81.88 35.4948 81.24H38.5788C38.4828 82.024 38.2828 82.776 37.9788 83.496C37.6828 84.216 37.2628 84.86 36.7188 85.428C36.1748 85.988 35.4908 86.432 34.6668 86.76C33.8508 87.08 32.8748 87.24 31.7388 87.24C30.1468 87.24 28.7788 86.876 27.6348 86.148C26.4988 85.412 25.6228 84.372 25.0068 83.028C24.3988 81.676 24.0948 80.072 24.0948 78.216C24.0948 76.368 24.3988 74.788 25.0068 73.476C25.6148 72.164 26.4868 71.16 27.6228 70.464C28.7668 69.76 30.1388 69.408 31.7388 69.408ZM46.5853 87.24C45.4013 87.24 44.3693 86.988 43.4893 86.484C42.6093 85.972 41.9253 85.24 41.4373 84.288C40.9573 83.336 40.7173 82.192 40.7173 80.856C40.7173 79.56 40.9493 78.424 41.4133 77.448C41.8853 76.472 42.5613 75.712 43.4413 75.168C44.3213 74.624 45.3733 74.352 46.5973 74.352C47.7813 74.352 48.8093 74.612 49.6813 75.132C50.5533 75.652 51.2253 76.396 51.6973 77.364C52.1773 78.332 52.4173 79.496 52.4173 80.856C52.4173 82.112 52.1893 83.22 51.7333 84.18C51.2853 85.132 50.6253 85.88 49.7533 86.424C48.8893 86.968 47.8333 87.24 46.5853 87.24ZM46.5973 85.02C47.2693 85.02 47.8213 84.836 48.2533 84.468C48.6933 84.1 49.0173 83.596 49.2253 82.956C49.4413 82.316 49.5493 81.588 49.5493 80.772C49.5493 80.012 49.4533 79.312 49.2613 78.672C49.0773 78.032 48.7653 77.52 48.3253 77.136C47.8933 76.744 47.3173 76.548 46.5973 76.548C45.9173 76.548 45.3533 76.728 44.9053 77.088C44.4653 77.44 44.1333 77.936 43.9093 78.576C43.6933 79.208 43.5853 79.94 43.5853 80.772C43.5853 81.524 43.6813 82.224 43.8733 82.872C44.0733 83.512 44.3933 84.032 44.8333 84.432C45.2733 84.824 45.8613 85.02 46.5973 85.02ZM55.0076 87V74.592H57.8636V76.368C58.0556 76.048 58.3156 75.74 58.6436 75.444C58.9796 75.148 59.3916 74.908 59.8796 74.724C60.3676 74.54 60.9396 74.448 61.5956 74.448C62.3636 74.448 63.0756 74.6 63.7316 74.904C64.3956 75.208 64.9276 75.684 65.3276 76.332C65.7356 76.98 65.9396 77.816 65.9396 78.84V87H63.0116V79.188C63.0116 78.372 62.7876 77.768 62.3396 77.376C61.8916 76.976 61.3276 76.776 60.6476 76.776C60.1836 76.776 59.7436 76.856 59.3276 77.016C58.9116 77.168 58.5716 77.404 58.3076 77.724C58.0516 78.036 57.9236 78.428 57.9236 78.9V87H55.0076ZM69.0701 87V74.592H71.9261V76.368C72.1181 76.048 72.3781 75.74 72.7061 75.444C73.0421 75.148 73.4541 74.908 73.9421 74.724C74.4301 74.54 75.0021 74.448 75.6581 74.448C76.4261 74.448 77.1381 74.6 77.7941 74.904C78.4581 75.208 78.9901 75.684 79.3901 76.332C79.7981 76.98 80.0021 77.816 80.0021 78.84V87H77.0741V79.188C77.0741 78.372 76.8501 77.768 76.4021 77.376C75.9541 76.976 75.3901 76.776 74.7101 76.776C74.2461 76.776 73.8061 76.856 73.3901 77.016C72.9741 77.168 72.6341 77.404 72.3701 77.724C72.1141 78.036 71.9861 78.428 71.9861 78.9V87H69.0701ZM85.4246 81.468C85.4166 82.172 85.5286 82.796 85.7606 83.34C85.9926 83.884 86.3366 84.312 86.7926 84.624C87.2486 84.928 87.8126 85.08 88.4846 85.08C89.1726 85.08 89.7686 84.928 90.2726 84.624C90.7846 84.312 91.1246 83.84 91.2926 83.208H93.9686C93.8246 84.072 93.4806 84.804 92.9366 85.404C92.3926 86.004 91.7326 86.46 90.9566 86.772C90.1886 87.084 89.3886 87.24 88.5566 87.24C87.3566 87.24 86.3006 86.988 85.3886 86.484C84.4846 85.972 83.7766 85.244 83.2646 84.3C82.7606 83.356 82.5086 82.232 82.5086 80.928C82.5086 79.656 82.7406 78.528 83.2046 77.544C83.6686 76.552 84.3366 75.772 85.2086 75.204C86.0886 74.636 87.1446 74.352 88.3766 74.352C89.6006 74.352 90.6286 74.612 91.4606 75.132C92.3006 75.652 92.9326 76.38 93.3566 77.316C93.7886 78.244 94.0046 79.332 94.0046 80.58V81.468H85.4246ZM85.4246 79.656H91.2446C91.2446 79.056 91.1406 78.516 90.9326 78.036C90.7246 77.548 90.4046 77.164 89.9726 76.884C89.5486 76.596 89.0126 76.452 88.3646 76.452C87.7246 76.452 87.1846 76.608 86.7446 76.92C86.3046 77.232 85.9726 77.636 85.7486 78.132C85.5246 78.62 85.4166 79.128 85.4246 79.656ZM101.874 74.352C102.842 74.352 103.694 74.544 104.43 74.928C105.166 75.312 105.754 75.844 106.194 76.524C106.642 77.204 106.91 77.976 106.998 78.84H104.502C104.446 78.464 104.31 78.108 104.094 77.772C103.878 77.428 103.586 77.152 103.218 76.944C102.85 76.728 102.406 76.62 101.886 76.62C100.958 76.62 100.202 76.964 99.6183 77.652C99.0423 78.34 98.7543 79.396 98.7543 80.82C98.7543 82.132 99.0303 83.176 99.5823 83.952C100.134 84.728 100.922 85.116 101.946 85.116C102.458 85.116 102.894 85.004 103.254 84.78C103.622 84.548 103.91 84.264 104.118 83.928C104.334 83.584 104.474 83.24 104.538 82.896H106.962C106.89 83.736 106.626 84.484 106.17 85.14C105.722 85.796 105.13 86.312 104.394 86.688C103.666 87.056 102.826 87.24 101.874 87.24C100.738 87.24 99.7263 86.992 98.8383 86.496C97.9583 85.992 97.2663 85.264 96.7623 84.312C96.2583 83.352 96.0063 82.196 96.0063 80.844C96.0063 79.556 96.2423 78.428 96.7143 77.46C97.1863 76.484 97.8623 75.724 98.7423 75.18C99.6223 74.628 100.666 74.352 101.874 74.352ZM116.275 76.656H113.503L113.515 83.772C113.515 84.14 113.555 84.412 113.635 84.588C113.723 84.756 113.859 84.868 114.043 84.924C114.235 84.972 114.491 84.996 114.811 84.996H116.335V86.844C116.175 86.908 115.931 86.964 115.603 87.012C115.283 87.068 114.851 87.096 114.307 87.096C113.323 87.096 112.559 86.968 112.015 86.712C111.479 86.448 111.107 86.076 110.899 85.596C110.691 85.116 110.587 84.544 110.587 83.88V76.656H108.571V74.592H110.671L111.403 70.908H113.503V74.58H116.275V76.656Z" fill="#E6E6E6"/>
</svg>
