<svg width="68" height="68" viewBox="0 0 68 68" fill="none" xmlns="http://www.w3.org/2000/svg">
<path fill-rule="evenodd" clip-rule="evenodd" d="M26 26C27.0609 26 28.0783 25.5786 28.8284 24.8284C29.5786 24.0783 30 23.0609 30 22C30 20.9391 29.5786 19.9217 28.8284 19.1716C28.0783 18.4214 27.0609 18 26 18C24.9391 18 23.9217 18.4214 23.1716 19.1716C22.4214 19.9217 22 20.9391 22 22C22 23.0609 22.4214 24.0783 23.1716 24.8284C23.9217 25.5786 24.9391 26 26 26ZM26 30C28.1217 30 30.1566 29.1571 31.6569 27.6569C33.1571 26.1566 34 24.1217 34 22C34 19.8783 33.1571 17.8434 31.6569 16.3431C30.1566 14.8429 28.1217 14 26 14C23.8783 14 21.8434 14.8429 20.3431 16.3431C18.8429 17.8434 18 19.8783 18 22C18 24.1217 18.8429 26.1566 20.3431 27.6569C21.8434 29.1571 23.8783 30 26 30Z" fill="#CAC6C6"/>
<path d="M23.9993 36.712L16.3593 47H23.9993L31.6393 51H16.3593C15.6185 50.9993 14.8925 50.7928 14.2621 50.4037C13.6317 50.0145 13.1218 49.458 12.7892 48.796C12.4565 48.1341 12.3143 47.3928 12.3782 46.6547C12.4422 45.9167 12.7098 45.2109 13.1513 44.616L20.7873 34.328C21.1595 33.8266 21.6438 33.4193 22.2015 33.1387C22.7593 32.8581 23.375 32.7119 23.9993 32.7119C24.6237 32.7119 25.2394 32.8581 25.7972 33.1387C26.3549 33.4193 26.8392 33.8266 27.2113 34.328L31.0313 39.472L27.8193 41.856L23.9993 36.712Z" fill="#CAC6C6"/>
<path fill-rule="evenodd" clip-rule="evenodd" d="M51.0282 46.9999L39.0002 33.1119L26.9722 46.9999H51.0282ZM42.0242 30.4919C41.6487 30.0583 41.1843 29.7104 40.6625 29.472C40.1408 29.2336 39.5738 29.1102 39.0002 29.1102C38.4265 29.1102 37.8596 29.2336 37.3378 29.472C36.8161 29.7104 36.3517 30.0583 35.9762 30.4919L23.9482 44.3799C23.4458 44.9595 23.1206 45.6713 23.0114 46.4305C22.9023 47.1897 23.0136 47.9643 23.3323 48.6619C23.651 49.3596 24.1636 49.9509 24.8089 50.3655C25.4543 50.78 26.2052 51.0002 26.9722 50.9999H51.0282C51.7952 51.0002 52.5461 50.78 53.1915 50.3655C53.8368 49.9509 54.3494 49.3596 54.668 48.6619C54.9867 47.9643 55.0981 47.1897 54.9889 46.4305C54.8797 45.6713 54.5546 44.9595 54.0522 44.3799L42.0242 30.4919Z" fill="#CAC6C6"/>
<path fill-rule="evenodd" clip-rule="evenodd" d="M62 4H6C5.46957 4 4.96086 4.21071 4.58579 4.58579C4.21071 4.96086 4 5.46957 4 6V62C4 62.5304 4.21071 63.0391 4.58579 63.4142C4.96086 63.7893 5.46957 64 6 64H62C62.5304 64 63.0391 63.7893 63.4142 63.4142C63.7893 63.0391 64 62.5304 64 62V6C64 5.46957 63.7893 4.96086 63.4142 4.58579C63.0391 4.21071 62.5304 4 62 4ZM6 0C4.4087 0 2.88258 0.632141 1.75736 1.75736C0.632141 2.88258 0 4.4087 0 6V62C0 63.5913 0.632141 65.1174 1.75736 66.2426C2.88258 67.3679 4.4087 68 6 68H62C63.5913 68 65.1174 67.3679 66.2426 66.2426C67.3679 65.1174 68 63.5913 68 62V6C68 4.4087 67.3679 2.88258 66.2426 1.75736C65.1174 0.632141 63.5913 0 62 0H6Z" fill="#CAC6C6"/>
</svg>
