<svg width="19" height="19" viewBox="0 0 19 19" fill="none" xmlns="http://www.w3.org/2000/svg">
<path d="M16.3989 0.5C16.9294 0.5 17.4381 0.710714 17.8131 1.08579C18.1882 1.46086 18.3989 1.96957 18.3989 2.5V16.5C18.3989 17.0304 18.1882 17.5391 17.8131 17.9142C17.4381 18.2893 16.9294 18.5 16.3989 18.5H2.39893C1.86849 18.5 1.35978 18.2893 0.984712 17.9142C0.609639 17.5391 0.398926 17.0304 0.398926 16.5V2.5C0.398926 1.96957 0.609639 1.46086 0.984712 1.08579C1.35978 0.710714 1.86849 0.5 2.39893 0.5H16.3989ZM15.8989 16V10.7C15.8989 9.83539 15.5555 9.0062 14.9441 8.39483C14.3327 7.78346 13.5035 7.44 12.6389 7.44C11.7889 7.44 10.7989 7.96 10.3189 8.74V7.63H7.52893V16H10.3189V11.07C10.3189 10.3 10.9389 9.67 11.7089 9.67C12.0802 9.67 12.4363 9.8175 12.6989 10.0801C12.9614 10.3426 13.1089 10.6987 13.1089 11.07V16H15.8989ZM4.27893 6.06C4.72449 6.06 5.1518 5.883 5.46687 5.56794C5.78193 5.25288 5.95893 4.82556 5.95893 4.38C5.95893 3.45 5.20893 2.69 4.27893 2.69C3.83071 2.69 3.40085 2.86805 3.08392 3.18499C2.76698 3.50193 2.58893 3.93178 2.58893 4.38C2.58893 5.31 3.34893 6.06 4.27893 6.06ZM5.66893 16V7.63H2.89893V16H5.66893Z" fill="white"/>
</svg>
