<svg width="138" height="116" viewBox="0 0 138 116" fill="none" xmlns="http://www.w3.org/2000/svg">
<path d="M11.1875 80.925H14.225V99H11.1875V80.925ZM24.5469 91.4125V93.6875L17.9469 93.7V91.425L24.5469 91.4125ZM35.2904 80.675C36.6154 80.675 37.7904 80.9458 38.8154 81.4875C39.8404 82.0208 40.6654 82.7458 41.2904 83.6625C41.9238 84.5792 42.2988 85.6 42.4154 86.725H39.2029C39.0779 86.0583 38.8446 85.4625 38.5029 84.9375C38.1696 84.4125 37.7279 83.9958 37.1779 83.6875C36.6279 83.3792 35.9696 83.225 35.2029 83.225C34.2446 83.225 33.4279 83.4542 32.7529 83.9125C32.0863 84.3625 31.5738 85.0792 31.2154 86.0625C30.8654 87.0458 30.6904 88.3208 30.6904 89.8875C30.6904 92.2625 31.0821 93.9917 31.8654 95.075C32.6488 96.1583 33.7613 96.7 35.2029 96.7C35.9696 96.7 36.6279 96.5333 37.1779 96.2C37.7279 95.8583 38.1696 95.4083 38.5029 94.85C38.8446 94.2833 39.0779 93.6667 39.2029 93H42.4154C42.3154 93.8167 42.1071 94.6 41.7904 95.35C41.4821 96.1 41.0446 96.7708 40.4779 97.3625C39.9113 97.9458 39.1988 98.4083 38.3404 98.75C37.4904 99.0833 36.4738 99.25 35.2904 99.25C33.6321 99.25 32.2071 98.8708 31.0154 98.1125C29.8321 97.3458 28.9196 96.2625 28.2779 94.8625C27.6446 93.4542 27.3279 91.7833 27.3279 89.85C27.3279 87.925 27.6446 86.2792 28.2779 84.9125C28.9113 83.5458 29.8196 82.5 31.0029 81.775C32.1946 81.0417 33.6238 80.675 35.2904 80.675ZM50.7555 99.25C49.5221 99.25 48.4471 98.9875 47.5305 98.4625C46.6138 97.9292 45.9013 97.1667 45.393 96.175C44.893 95.1833 44.643 93.9917 44.643 92.6C44.643 91.25 44.8846 90.0667 45.368 89.05C45.8596 88.0333 46.5638 87.2417 47.4805 86.675C48.3971 86.1083 49.493 85.825 50.768 85.825C52.0013 85.825 53.0721 86.0958 53.9805 86.6375C54.8888 87.1792 55.5888 87.9542 56.0805 88.9625C56.5805 89.9708 56.8305 91.1833 56.8305 92.6C56.8305 93.9083 56.593 95.0625 56.118 96.0625C55.6513 97.0542 54.9638 97.8333 54.0555 98.4C53.1555 98.9667 52.0555 99.25 50.7555 99.25ZM50.768 96.9375C51.468 96.9375 52.043 96.7458 52.493 96.3625C52.9513 95.9792 53.2888 95.4542 53.5055 94.7875C53.7305 94.1208 53.843 93.3625 53.843 92.5125C53.843 91.7208 53.743 90.9917 53.543 90.325C53.3513 89.6583 53.0263 89.125 52.568 88.725C52.118 88.3167 51.518 88.1125 50.768 88.1125C50.0596 88.1125 49.4721 88.3 49.0055 88.675C48.5471 89.0417 48.2013 89.5583 47.968 90.225C47.743 90.8833 47.6305 91.6458 47.6305 92.5125C47.6305 93.2958 47.7305 94.025 47.9305 94.7C48.1388 95.3667 48.4721 95.9083 48.9305 96.325C49.3888 96.7333 50.0013 96.9375 50.768 96.9375ZM59.5287 99V86.075H62.5037V87.925C62.7037 87.5917 62.9745 87.2708 63.3162 86.9625C63.6662 86.6542 64.0954 86.4042 64.6037 86.2125C65.112 86.0208 65.7079 85.925 66.3912 85.925C67.1912 85.925 67.9329 86.0833 68.6162 86.4C69.3079 86.7167 69.862 87.2125 70.2787 87.8875C70.7037 88.5625 70.9162 89.4333 70.9162 90.5V99H67.8662V90.8625C67.8662 90.0125 67.6329 89.3833 67.1662 88.975C66.6995 88.5583 66.112 88.35 65.4037 88.35C64.9204 88.35 64.462 88.4333 64.0287 88.6C63.5954 88.7583 63.2412 89.0042 62.9662 89.3375C62.6995 89.6625 62.5662 90.0708 62.5662 90.5625V99H59.5287ZM74.1771 99V86.075H77.1521V87.925C77.3521 87.5917 77.623 87.2708 77.9646 86.9625C78.3146 86.6542 78.7438 86.4042 79.2521 86.2125C79.7605 86.0208 80.3563 85.925 81.0396 85.925C81.8396 85.925 82.5813 86.0833 83.2646 86.4C83.9563 86.7167 84.5105 87.2125 84.9271 87.8875C85.3521 88.5625 85.5646 89.4333 85.5646 90.5V99H82.5146V90.8625C82.5146 90.0125 82.2813 89.3833 81.8146 88.975C81.348 88.5583 80.7605 88.35 80.0521 88.35C79.5688 88.35 79.1105 88.4333 78.6771 88.6C78.2438 88.7583 77.8896 89.0042 77.6146 89.3375C77.348 89.6625 77.2146 90.0708 77.2146 90.5625V99H74.1771ZM91.2131 93.2375C91.2048 93.9708 91.3214 94.6208 91.5631 95.1875C91.8048 95.7542 92.1631 96.2 92.6381 96.525C93.1131 96.8417 93.7006 97 94.4006 97C95.1173 97 95.7381 96.8417 96.2631 96.525C96.7964 96.2 97.1506 95.7083 97.3256 95.05H100.113C99.9631 95.95 99.6048 96.7125 99.0381 97.3375C98.4714 97.9625 97.7839 98.4375 96.9756 98.7625C96.1756 99.0875 95.3423 99.25 94.4756 99.25C93.2256 99.25 92.1256 98.9875 91.1756 98.4625C90.2339 97.9292 89.4964 97.1708 88.9631 96.1875C88.4381 95.2042 88.1756 94.0333 88.1756 92.675C88.1756 91.35 88.4173 90.175 88.9006 89.15C89.3839 88.1167 90.0798 87.3042 90.9881 86.7125C91.9048 86.1208 93.0048 85.825 94.2881 85.825C95.5631 85.825 96.6339 86.0958 97.5006 86.6375C98.3756 87.1792 99.0339 87.9375 99.4756 88.9125C99.9256 89.8792 100.151 91.0125 100.151 92.3125V93.2375H91.2131ZM91.2131 91.35H97.2756C97.2756 90.725 97.1673 90.1625 96.9506 89.6625C96.7339 89.1542 96.4006 88.7542 95.9506 88.4625C95.5089 88.1625 94.9506 88.0125 94.2756 88.0125C93.6089 88.0125 93.0464 88.175 92.5881 88.5C92.1298 88.825 91.7839 89.2458 91.5506 89.7625C91.3173 90.2708 91.2048 90.8 91.2131 91.35ZM108.348 85.825C109.357 85.825 110.244 86.025 111.011 86.425C111.777 86.825 112.39 87.3792 112.848 88.0875C113.315 88.7958 113.594 89.6 113.686 90.5H111.086C111.027 90.1083 110.886 89.7375 110.661 89.3875C110.436 89.0292 110.132 88.7417 109.748 88.525C109.365 88.3 108.902 88.1875 108.361 88.1875C107.394 88.1875 106.607 88.5458 105.998 89.2625C105.398 89.9792 105.098 91.0792 105.098 92.5625C105.098 93.9292 105.386 95.0167 105.961 95.825C106.536 96.6333 107.357 97.0375 108.423 97.0375C108.957 97.0375 109.411 96.9208 109.786 96.6875C110.169 96.4458 110.469 96.15 110.686 95.8C110.911 95.4417 111.057 95.0833 111.123 94.725H113.648C113.573 95.6 113.298 96.3792 112.823 97.0625C112.357 97.7458 111.74 98.2833 110.973 98.675C110.215 99.0583 109.34 99.25 108.348 99.25C107.165 99.25 106.111 98.9917 105.186 98.475C104.269 97.95 103.548 97.1917 103.023 96.2C102.498 95.2 102.236 93.9958 102.236 92.5875C102.236 91.2458 102.482 90.0708 102.973 89.0625C103.465 88.0458 104.169 87.2542 105.086 86.6875C106.002 86.1125 107.09 85.825 108.348 85.825ZM123.348 88.225H120.461L120.473 95.6375C120.473 96.0208 120.515 96.3042 120.598 96.4875C120.69 96.6625 120.832 96.7792 121.023 96.8375C121.223 96.8875 121.49 96.9125 121.823 96.9125H123.411V98.8375C123.244 98.9042 122.99 98.9625 122.648 99.0125C122.315 99.0708 121.865 99.1 121.298 99.1C120.273 99.1 119.478 98.9667 118.911 98.7C118.353 98.425 117.965 98.0375 117.748 97.5375C117.532 97.0375 117.423 96.4417 117.423 95.75V88.225H115.323V86.075H117.511L118.273 82.2375H120.461V86.0625H123.348V88.225Z" fill="#5A1327"/>
<path d="M63.2455 18.1665L56.5788 24.8417L49.9121 31.5168L56.5788 38.1919L63.2455 44.8671L65.5788 42.5308L67.9122 40.1945L63.5788 35.8556L59.2454 31.5168L63.5788 27.178L67.9122 22.8391L65.5788 20.5028L63.2455 18.1665ZM83.2456 18.1665L80.9122 20.5028L78.5789 22.8391L82.9122 27.178L87.2456 31.5168L82.9122 35.8556L78.5789 40.1945L80.9122 42.5308L83.2456 44.8671L89.9123 38.1919L96.579 31.5168L89.9123 24.8417L83.2456 18.1665ZM103.169 68.5305L101.876 63.4173C101.793 63.0913 101.645 62.7855 101.441 62.5182C101.237 62.2509 100.981 62.0277 100.689 61.862C100.395 61.6938 100.071 61.5859 99.7348 61.5446C99.3989 61.5034 99.0581 61.5296 98.7323 61.6217L83.5589 65.9072L73.2455 61.555L86.2956 58.2074C87.1865 57.4116 87.8318 56.3775 88.1556 55.2269L87.1323 51.5422L59.9121 54.8798H43.2454V74.9053H59.9121L74.7622 78.1227C75.5695 78.1962 76.3826 78.1772 77.1856 78.0659L101.386 71.5443C102.02 71.3741 102.564 70.9621 102.899 70.3962C103.065 70.1178 103.174 69.8093 103.22 69.4886C103.266 69.1679 103.249 68.8445 103.169 68.5305ZM53.2454 71.5677H46.5787V58.2174H53.2454V71.5677ZM76.3189 74.8452C76.1687 74.8844 76.0141 74.9046 75.8589 74.9053C75.73 74.9057 75.6015 74.8923 75.4755 74.8652L59.9121 71.4442V58.2841L84.3423 55.2536L66.5788 61.555L82.3156 69.0044L83.3723 69.4283L84.4656 69.1179L98.8523 65.0561L99.7323 68.5338L76.3189 74.8452Z" fill="#440E1D"/>
</svg>
