<svg width="33" height="32" viewBox="0 0 33 32" fill="none" xmlns="http://www.w3.org/2000/svg">
<g clip-path="url(#clip0_348_3049)">
<path d="M16.7068 0C13.5423 0 10.4489 0.938384 7.81767 2.69649C5.18648 4.45459 3.13572 6.95345 1.92472 9.87707C0.71372 12.8007 0.396866 16.0177 1.01423 19.1214C1.63159 22.2251 3.15545 25.0761 5.39309 27.3137C7.63073 29.5513 10.4817 31.0752 13.5854 31.6926C16.689 32.3099 19.9061 31.9931 22.8297 30.7821C25.7533 29.5711 28.2522 27.5203 30.0103 24.8891C31.7684 22.2579 32.7068 19.1645 32.7068 16C32.7068 11.7565 31.0211 7.68687 28.0205 4.68629C25.0199 1.68571 20.9503 0 16.7068 0Z" fill="#E8E9EA"/>
<path d="M16.5924 12.786C17.6408 12.7864 18.6569 12.4232 19.4676 11.7584C20.2782 11.0935 20.8332 10.1681 21.0381 9.13992C21.2429 8.1117 21.0848 7.04427 20.5907 6.11954C20.0967 5.19482 19.2973 4.47001 18.3288 4.06865C17.3602 3.66728 16.2825 3.61419 15.2791 3.91843C14.2758 4.22266 13.4091 4.86539 12.8266 5.73709C12.244 6.60878 11.9818 7.6555 12.0846 8.69888C12.1873 9.74225 12.6487 10.7177 13.3901 11.459C13.8096 11.8809 14.3087 12.2154 14.8584 12.4432C15.408 12.671 15.9974 12.7875 16.5924 12.786Z" fill="white"/>
<path d="M26.2788 15.2735C26.0289 14.8624 25.6769 14.5229 25.257 14.288C24.8371 14.0531 24.3636 13.9307 23.8824 13.9329H9.54654C9.06504 13.9312 8.59116 14.0531 8.17033 14.2871C7.7495 14.5211 7.39583 14.8593 7.14323 15.2692C6.89062 15.6791 6.74755 16.1471 6.72773 16.6282C6.7079 17.1093 6.81199 17.5874 7.03002 18.0167L14.0275 31.7714L14.1476 31.7927C15.8418 32.0692 17.5697 32.0692 19.2639 31.7927L19.3841 31.7714L26.3815 18.0167C26.6025 17.5895 26.7092 17.1123 26.6912 16.6316C26.6732 16.1509 26.5312 15.6831 26.2788 15.2735Z" fill="white"/>
</g>
<defs>
<clipPath id="clip0_348_3049">
<rect width="32" height="32" fill="white" transform="translate(0.830078)"/>
</clipPath>
</defs>
</svg>