<svg width="19" height="18" viewBox="0 0 19 18" fill="none" xmlns="http://www.w3.org/2000/svg">
<path d="M17.531 17.7901C17.991 18.2501 18.701 17.5401 18.241 17.0901L14.491 13.3301C15.8064 11.8746 16.5335 9.98189 16.531 8.02006C16.531 3.63006 12.961 0.0600586 8.57096 0.0600586C4.18096 0.0600586 0.610962 3.63006 0.610962 8.02006C0.610962 12.4101 4.18096 15.9801 8.57096 15.9801C10.551 15.9801 12.381 15.2501 13.781 14.0401L17.531 17.7901ZM1.60996 8.02006C1.60996 4.18006 4.73996 1.06006 8.56996 1.06006C12.41 1.06006 15.53 4.18006 15.53 8.02006C15.53 11.8601 12.41 14.9801 8.56996 14.9801C4.73996 14.9801 1.60996 11.8601 1.60996 8.02006Z" fill="#603914"/>
</svg>
