<svg width="22" height="22" viewBox="0 0 22 22" fill="none" xmlns="http://www.w3.org/2000/svg">
<path d="M10.4946 1.71393C10.7012 1.29539 11.298 1.29539 11.5046 1.71393L14.1786 7.13206C14.2606 7.29826 14.4192 7.41346 14.6026 7.44011L20.5818 8.30895C21.0437 8.37607 21.2282 8.94369 20.8939 9.26948L16.5673 13.4869C16.4346 13.6163 16.374 13.8027 16.4053 13.9854L17.4267 19.9404C17.5056 20.4005 17.0228 20.7513 16.6096 20.5341L11.2616 17.7225C11.0976 17.6362 10.9016 17.6362 10.7375 17.7225L5.38953 20.5341C4.9764 20.7513 4.49355 20.4005 4.57245 19.9404L5.59383 13.9854C5.62516 13.8027 5.5646 13.6163 5.43187 13.4869L1.10525 9.26948C0.771016 8.94369 0.955448 8.37607 1.41734 8.30895L7.3966 7.44011C7.58001 7.41346 7.73857 7.29826 7.8206 7.13206L10.4946 1.71393Z" fill="#FFED47" stroke="#FFED47" stroke-width="1.5" stroke-linejoin="round"/>
</svg>
